#N canvas 693 31 1111 1008 10;
#X obj 151 902 *~;
#X obj 179 853 hsl 128 15 0 1 0 0 empty empty empty -2 -8 0 10 -262144
-1 -1 0 1;
#X obj 161 941 dac~;
#X obj 175 785 ctlin;
#X obj 175 803 / 127;
#X obj 176 871 line~ 100;
#X obj 231 272 hsl 128 15 0 8 0 0 empty empty empty -2 -8 0 10 -262144
-1 -1 11900 1;
#X obj 116 73 p_notein;
#X obj 118 135 p_noteclean;
#X obj 238 196 bng 15 250 50 0 empty empty empty 17 7 0 10 -262144
-1 -1;
#X obj 315 192 bng 15 250 50 0 empty empty empty 17 7 0 10 -262144
-1 -1;
#X obj 239 294 hsl 128 15 0 1 0 0 empty empty empty -2 -8 0 10 -262144
-1 -1 1800 1;
#X text 365 268 phaze;
#X text 375 292 amount;
#X floatatom 125 176 5 0 0 0 - - -;
#X msg 718 136 440;
#X msg 748 136 880;
#X obj 601 343 *;
#X obj 598 155 vsl 15 128 0 1 0 0 empty empty empty 0 -9 0 10 -262144
-1 -1 5000 1;
#X obj 634 155 vsl 15 128 0 880 0 0 empty empty empty 0 -9 0 10 -262144
-1 -1 6350 1;
#X floatatom 633 289 5 0 0 0 - - -;
#X floatatom 598 289 5 0 0 0 - - -;
#X floatatom 600 364 5 0 0 0 - - -;
#X obj 414 77 bendin;
#X floatatom 414 120 9 0 0 0 - - -;
#X obj 133 326 +;
#X obj 142 345 mtof;
#X obj 414 99 expr ($f1 - 8192) / 8191 * $f2;
#X msg 615 61 3;
#X text 588 39 bend range halftones;
#X obj 118 285 t b f;
#X msg 581 61 2;
#X msg 548 61 1;
#X msg 600 385 \$1 100;
#X obj 400 503 *~;
#X obj 249 325 hsl 128 15 0 8 0 0 empty empty empty -2 -8 0 10 -262144
-1 -1 1600 1;
#X obj 257 347 hsl 128 15 0 1 0 0 empty empty empty -2 -8 0 10 -262144
-1 -1 2300 1;
#X msg 688 136 220;
#X obj 581 23 loadbang;
#X obj 588 866 vline~;
#X floatatom 596 698 5 0 0 0 - - -;
#X floatatom 655 628 5 0 0 0 - - -;
#X floatatom 678 717 5 0 0 0 - - -;
#X text 596 679 atck time;
#X text 647 607 sust val;
#X obj 659 663 clip 0 1;
#X text 686 732 sust time;
#X floatatom 545 651 5 0 0 0 - - -;
#X obj 605 761 pack f f f f;
#X obj 544 671 / 127;
#X floatatom 546 692 5 0 0 0 - - -;
#X text 562 705 vol;
#X floatatom 781 645 5 0 0 0 - - -;
#X text 791 660 cutoff time;
#X floatatom 661 688 5 0 0 0 - - -;
#X obj 667 582 hsl 128 15 0 1 0 0 empty empty sustain_value -2 -8 0
10 -262144 -1 -1 11600 1;
#X msg 588 787 \$1 \$2 \, \$3 \$4 \$2;
#X obj 632 314 t b f;
#X obj 119 251 line;
#X floatatom 170 187 5 0 0 0 - - -;
#X msg 118 232 \$1 \$2;
#X obj 118 211 pack;
#X msg 657 136 22;
#X text 159 229 portament;
#X floatatom 885 668 5 0 0 0 - - -;
#X text 921 668 longtail amount;
#X floatatom 915 688 5 0 0 0 - - -;
#X text 951 688 longtail time;
#X obj 767 821 pack f f f;
#X msg 705 849 \$1 \$2 \, 0 \$3 \$2;
#X obj 818 726 clip 0 1;
#X obj 767 797 f;
#X obj 766 692 t b f;
#X obj 885 497 vsl 15 128 0 0.5 0 0 empty empty longtail_amount 0 -9
0 10 -262144 -1 -1 6700 1;
#X obj 803 780 *;
#X floatatom 882 839 5 0 0 0 - - -;
#X obj 818 752 t b f;
#X obj 148 763 freeverb~;
#X obj 192 902 *~;
#X msg 33 461 roomsize \$1;
#X msg 33 501 damping \$1;
#X msg 33 543 width \$1;
#X msg 33 589 wet \$1;
#X msg 33 637 dry \$1;
#X obj 36 446 hsl 128 15 0 1 0 0 empty empty empty -2 -8 0 10 -262144
-1 -1 3100 1;
#X obj 36 485 hsl 128 15 0 1 0 0 empty empty empty -2 -8 0 10 -262144
-1 -1 2300 1;
#X obj 36 526 hsl 128 15 0 1 0 0 empty empty empty -2 -8 0 10 -262144
-1 -1 1600 1;
#X obj 36 569 hsl 128 15 0 1 0 0 empty empty empty -2 -8 0 10 -262144
-1 -1 7800 1;
#X obj 36 616 hsl 128 15 0 1 0 0 empty empty empty -2 -8 0 10 -262144
-1 -1 11900 1;
#X msg 33 667 bypass \$1;
#X obj 8 652 tgl 15 0 empty empty empty 17 7 0 10 -262144 -1 -1 0 1
;
#N canvas 73 344 494 513 filter 1;
#X obj 57 35 inlet~;
#X obj 76 414 outlet~;
#X obj 147 36 inlet;
#X obj 205 35 inlet;
#X obj 262 34 inlet;
#X text 146 18 freq;
#X text 196 17 harmonic;
#X text 273 16 Q;
#X floatatom 104 151 5 0 0 0 - - -;
#X floatatom 207 265 5 0 0 0 - - -;
#X obj 92 305 vcf~;
#X obj 146 86 t b f;
#X obj 103 122 * 1;
#X obj 246 139 *;
#X floatatom 233 179 5 0 0 0 - - -;
#X floatatom 268 57 5 0 0 0 - - -;
#X floatatom 212 65 5 0 0 0 - - -;
#X floatatom 110 68 5 0 0 0 - - -;
#X obj 296 242 clip 0 400;
#X obj 255 104 t f f;
#X obj 263 79 / 100;
#X obj 107 191 line~ 1000;
#X msg 104 171 \$1 4;
#X obj 130 408 outlet~;
#X connect 0 0 10 0;
#X connect 2 0 12 0;
#X connect 2 0 17 0;
#X connect 3 0 11 0;
#X connect 3 0 16 0;
#X connect 4 0 15 0;
#X connect 8 0 22 0;
#X connect 9 0 10 2;
#X connect 10 0 1 0;
#X connect 10 1 23 0;
#X connect 11 0 12 0;
#X connect 11 1 12 1;
#X connect 12 0 8 0;
#X connect 13 0 14 0;
#X connect 14 0 18 0;
#X connect 15 0 20 0;
#X connect 18 0 9 0;
#X connect 19 0 13 0;
#X connect 19 1 13 1;
#X connect 20 0 19 0;
#X connect 21 0 10 1;
#X connect 22 0 21 0;
#X restore 239 567 pd filter;
#X obj 290 432 vsl 15 128 0 127 0 0 empty empty empty 0 -9 0 10 -262144
-1 -1 4700 1;
#X obj 601 410 line~;
#X obj 931 534 vsl 15 128 0 2000 0 0 empty empty longtail_time 0 -9
0 10 -262144 -1 -1 3100 1;
#X obj 175 829 * 1;
#X floatatom 254 798 5 0 0 0 - - -;
#X obj 720 107 loadbang;
#N canvas 0 70 504 570 osc3nooffset 0;
#X obj 106 -99 inlet~;
#X obj 147 374 outlet~;
#X obj 118 -5 inlet~;
#X obj 107 138 osc~;
#X obj 179 131 osc~;
#X obj 189 35 *~;
#X obj 143 299 *~;
#X obj 99 34 *~;
#X obj 211 -7 inlet~;
#X obj 252 285 p_AB~;
#X obj 310 269 tgl 15 0 empty empty empty 17 7 0 10 -262144 -1 -1 0
1;
#X obj 224 262 sin~;
#X obj 264 261 cos~;
#X obj 106 251 p_AB~;
#X obj 164 234 tgl 15 0 empty empty empty 17 7 0 10 -262144 -1 -1 0
1;
#X obj 121 217 cos~;
#X floatatom 390 -29 5 0 0 0 - - -;
#X obj 378 -74 r \$0_currentfreq;
#X connect 0 0 5 0;
#X connect 0 0 7 0;
#X connect 2 0 7 1;
#X connect 3 0 15 0;
#X connect 3 0 13 0;
#X connect 4 0 12 0;
#X connect 4 0 11 0;
#X connect 5 0 4 0;
#X connect 6 0 1 0;
#X connect 7 0 3 0;
#X connect 8 0 5 1;
#X connect 9 0 6 1;
#X connect 10 0 9 2;
#X connect 11 0 9 0;
#X connect 12 0 9 1;
#X connect 13 0 6 0;
#X connect 14 0 13 2;
#X connect 15 0 13 1;
#X connect 17 0 16 0;
#X restore 417 615 pd osc3nooffset;
#X obj 408 421 sig~;
#X msg 408 391 10;
#X obj 520 279 vsl 15 128 0 127 0 0 empty empty empty 0 -9 0 10 -262144
-1 -1 0 1;
#X msg 906 138 440;
#X msg 936 138 880;
#X obj 789 345 *;
#X obj 787 158 vsl 15 128 0 1 0 0 empty empty empty 0 -9 0 10 -262144
-1 -1 4100 1;
#X obj 822 157 vsl 15 128 0 880 0 0 empty empty empty 0 -9 0 10 -262144
-1 -1 6350 1;
#X floatatom 821 291 5 0 0 0 - - -;
#X floatatom 786 291 5 0 0 0 - - -;
#X floatatom 788 366 5 0 0 0 - - -;
#X msg 788 387 \$1 100;
#X msg 876 138 220;
#X obj 820 316 t b f;
#X msg 845 138 22;
#X obj 789 412 line~;
#X obj 908 109 loadbang;
#X text 506 239 precraze;
#X text 583 134 Acraze;
#X text 787 116 Bcraze (sin/cos);
#X floatatom 522 419 5 0 0 0 - - -;
#X text 506 254 >destroyer>;
#X obj 460 279 vsl 15 128 0 2 0 0 empty empty empty 0 -9 0 10 -262144
-1 -1 6900 1;
#X text 446 239 precraze;
#X floatatom 462 419 5 0 0 0 - - -;
#X text 446 254 >destroyer>;
#X obj 270 430 vsl 15 128 0 1 0 0 empty empty empty 0 -9 0 10 -262144
-1 -1 1000 1;
#X obj 40 364 s \$0_currentfreq;
#X obj 249 638 *~;
#X obj 325 847 p_sigrapher;
#X obj 766 669 f;
#X obj 334 444 *~;
#N canvas 72 190 625 571 phazedosc 0;
#X obj 107 445 outlet~;
#X obj 223 127 +;
#X obj 210 182 osc~;
#X obj 206 102 f;
#X obj 237 72 t b f;
#X obj 68 26 inlet;
#X obj 115 26 inlet~;
#X obj 218 32 inlet;
#X obj 68 112 sig~;
#X obj 233 342 *~;
#X obj 288 29 inlet;
#X text 257 343 amount;
#X obj 103 179 osc~;
#X obj 434 199 +;
#X obj 423 232 osc~;
#X obj 413 174 f;
#X obj 435 153 t b f;
#X obj 478 48 inlet;
#X obj 538 50 inlet;
#X text 73 3 base;
#X text 241 6 1st phaze;
#X text 492 13 2nd phaze;
#X obj 420 266 *~;
#X text 452 263 amount;
#X obj 392 112 +;
#X obj 380 91 f;
#X obj 382 69 t b f;
#X floatatom 466 76 5 0 0 0 - - -;
#X floatatom 195 57 5 0 0 0 - - -;
#X connect 1 0 2 0;
#X connect 2 0 9 0;
#X connect 3 0 1 0;
#X connect 4 0 3 0;
#X connect 4 1 1 1;
#X connect 5 0 3 0;
#X connect 5 0 8 0;
#X connect 5 0 15 0;
#X connect 6 0 12 0;
#X connect 7 0 4 0;
#X connect 7 0 25 0;
#X connect 7 0 28 0;
#X connect 8 0 12 0;
#X connect 9 0 0 0;
#X connect 10 0 9 1;
#X connect 12 0 0 0;
#X connect 13 0 14 0;
#X connect 14 0 22 0;
#X connect 15 0 13 0;
#X connect 16 0 15 0;
#X connect 16 1 13 1;
#X connect 17 0 26 0;
#X connect 17 0 27 0;
#X connect 18 0 22 1;
#X connect 22 0 9 0;
#X connect 24 0 16 0;
#X connect 25 0 24 0;
#X connect 26 0 25 0;
#X connect 26 1 24 1;
#X restore 179 375 pd phazedosc;
#N canvas 0 23 930 774 cf 0;
#X obj 64 72 inlet~;
#X obj 71 288 outlet~;
#X obj 246 76 inlet;
#X obj 245 133 clip 0 1;
#X obj 169 78 inlet~;
#X obj 305 213 hsl 40 15 0 1 0 0 empty empty empty -2 -8 0 10 -262144
-1 -1 1200 1;
#X obj 69 218 expr~ ($v2*$f3)+($v1*(1-$f3));
#X connect 0 0 6 0;
#X connect 2 0 3 0;
#X connect 3 0 5 0;
#X connect 4 0 6 1;
#X connect 5 0 6 2;
#X connect 6 0 1 0;
#X coords 0 -1 1 1 50 30 1 300 200;
#X restore 313 469 pd cf;
#X obj 350 424 *~ 0.5;
#N canvas 0 23 930 774 cf 0;
#X obj 64 72 inlet~;
#X obj 71 288 outlet~;
#X obj 246 76 inlet;
#X obj 245 133 clip 0 1;
#X obj 169 78 inlet~;
#X obj 305 213 hsl 40 15 0 1 0 0 empty empty empty -2 -8 0 10 -262144
-1 -1 1000 1;
#X obj 69 218 expr~ ($v2*$f3)+($v1*(1-$f3));
#X connect 0 0 6 0;
#X connect 2 0 3 0;
#X connect 3 0 5 0;
#X connect 4 0 6 1;
#X connect 5 0 6 2;
#X connect 6 0 1 0;
#X coords 0 -1 1 1 50 30 1 300 200;
#X restore 250 587 pd cf;
#X obj 373 647 sin~;
#X obj 373 687 *~;
#N canvas 0 23 930 774 (subpatch) 0;
#X obj 64 72 inlet~;
#X obj 71 288 outlet~;
#X obj 246 76 inlet;
#X obj 245 133 clip 0 1;
#X obj 169 78 inlet~;
#X obj 305 213 hsl 40 15 0 1 0 0 empty empty empty -2 -8 0 10 -262144
-1 -1 3500 1;
#X obj 69 218 expr~ ($v2*$f3)+($v1*(1-$f3));
#X connect 0 0 6 0;
#X connect 2 0 3 0;
#X connect 3 0 5 0;
#X connect 4 0 6 1;
#X connect 5 0 6 2;
#X connect 6 0 1 0;
#X coords 0 -1 1 1 50 30 1 300 200;
#X restore 224 693 pd;
#N canvas 73 344 494 513 filter 0;
#X obj 57 35 inlet~;
#X obj 76 414 outlet~;
#X obj 147 36 inlet;
#X obj 205 35 inlet;
#X obj 262 34 inlet;
#X text 146 18 freq;
#X text 196 17 harmonic;
#X text 273 16 Q;
#X floatatom 104 151 5 0 0 0 - - -;
#X floatatom 207 265 5 0 0 0 - - -;
#X obj 92 305 vcf~;
#X obj 146 86 t b f;
#X obj 103 122 * 1;
#X obj 246 139 *;
#X floatatom 233 179 5 0 0 0 - - -;
#X floatatom 268 57 5 0 0 0 - - -;
#X floatatom 212 65 5 0 0 0 - - -;
#X floatatom 110 68 5 0 0 0 - - -;
#X obj 296 242 clip 0 400;
#X obj 255 104 t f f;
#X obj 263 79 / 100;
#X obj 107 191 line~ 1000;
#X msg 104 171 \$1 4;
#X obj 130 408 outlet~;
#X connect 0 0 10 0;
#X connect 2 0 12 0;
#X connect 2 0 17 0;
#X connect 3 0 11 0;
#X connect 3 0 16 0;
#X connect 4 0 15 0;
#X connect 8 0 22 0;
#X connect 9 0 10 2;
#X connect 10 0 1 0;
#X connect 10 1 23 0;
#X connect 11 0 12 0;
#X connect 11 1 12 1;
#X connect 12 0 8 0;
#X connect 13 0 14 0;
#X connect 14 0 18 0;
#X connect 15 0 20 0;
#X connect 18 0 9 0;
#X connect 19 0 13 0;
#X connect 19 1 13 1;
#X connect 20 0 19 0;
#X connect 21 0 10 1;
#X connect 22 0 21 0;
#X restore 152 639 pd filter;
#X obj 203 504 vsl 15 128 0 127 0 0 empty empty empty 0 -9 0 10 -262144
-1 -1 4900 1;
#X obj 183 502 vsl 15 128 0 1 0 0 empty empty empty 0 -9 0 10 -262144
-1 -1 3500 1;
#X text 304 567 pre;
#X text 211 638 post;
#X obj 258 729 hip~;
#X obj 282 688 loadbang;
#X obj 410 664 *~ -0.5;
#X msg 281 707 5;
#X text 612 454 ********************;
#X text 615 468 Settings for Heimorgel noch kurz was lautes;
#X text 615 488 Pip und Anja Session;
#X text 612 504 ********************;
#X connect 0 0 2 0;
#X connect 1 0 5 0;
#X connect 3 0 4 0;
#X connect 4 0 95 0;
#X connect 5 0 0 1;
#X connect 5 0 78 1;
#X connect 6 0 131 2;
#X connect 7 0 8 0;
#X connect 7 1 8 1;
#X connect 7 2 8 2;
#X connect 8 1 14 0;
#X connect 8 2 9 0;
#X connect 8 2 47 0;
#X connect 8 3 10 0;
#X connect 10 0 129 0;
#X connect 11 0 131 3;
#X connect 14 0 61 0;
#X connect 15 0 19 0;
#X connect 15 0 20 0;
#X connect 16 0 19 0;
#X connect 16 0 20 0;
#X connect 17 0 22 0;
#X connect 18 0 21 0;
#X connect 19 0 20 0;
#X connect 20 0 57 0;
#X connect 21 0 17 0;
#X connect 22 0 33 0;
#X connect 23 0 27 0;
#X connect 24 0 25 0;
#X connect 25 0 26 0;
#X connect 26 0 131 0;
#X connect 26 0 91 1;
#X connect 26 0 126 0;
#X connect 26 0 138 1;
#X connect 27 0 24 0;
#X connect 28 0 27 1;
#X connect 30 0 25 0;
#X connect 30 1 25 1;
#X connect 31 0 27 1;
#X connect 32 0 27 1;
#X connect 33 0 93 0;
#X connect 34 0 134 1;
#X connect 34 0 91 0;
#X connect 35 0 131 4;
#X connect 36 0 131 5;
#X connect 37 0 19 0;
#X connect 37 0 20 0;
#X connect 38 0 31 0;
#X connect 39 0 127 1;
#X connect 39 0 133 0;
#X connect 39 0 136 1;
#X connect 40 0 48 1;
#X connect 41 0 45 0;
#X connect 42 0 48 3;
#X connect 45 0 54 0;
#X connect 47 0 49 0;
#X connect 48 0 56 0;
#X connect 49 0 50 0;
#X connect 50 0 48 0;
#X connect 52 0 129 1;
#X connect 54 0 48 2;
#X connect 54 0 74 0;
#X connect 55 0 41 0;
#X connect 56 0 39 0;
#X connect 57 0 17 0;
#X connect 57 1 17 1;
#X connect 58 0 30 0;
#X connect 59 0 61 1;
#X connect 60 0 58 0;
#X connect 61 0 60 0;
#X connect 62 0 19 0;
#X connect 62 0 20 0;
#X connect 64 0 70 0;
#X connect 66 0 68 2;
#X connect 68 0 69 0;
#X connect 69 0 39 0;
#X connect 70 0 76 0;
#X connect 71 0 68 0;
#X connect 72 0 71 0;
#X connect 72 1 68 1;
#X connect 73 0 64 0;
#X connect 74 0 71 1;
#X connect 74 0 75 0;
#X connect 76 0 74 0;
#X connect 76 1 74 1;
#X connect 77 0 0 0;
#X connect 77 1 78 0;
#X connect 78 0 2 1;
#X connect 78 0 128 0;
#X connect 79 0 77 0;
#X connect 80 0 77 0;
#X connect 81 0 77 0;
#X connect 82 0 77 0;
#X connect 83 0 77 0;
#X connect 84 0 79 0;
#X connect 85 0 80 0;
#X connect 86 0 81 0;
#X connect 87 0 82 0;
#X connect 88 0 83 0;
#X connect 89 0 77 0;
#X connect 90 0 89 0;
#X connect 91 0 134 0;
#X connect 92 0 91 3;
#X connect 93 0 98 1;
#X connect 94 0 66 0;
#X connect 95 0 1 0;
#X connect 96 0 95 1;
#X connect 97 0 15 0;
#X connect 98 0 127 0;
#X connect 98 0 135 0;
#X connect 99 0 34 1;
#X connect 100 0 99 0;
#X connect 101 0 99 0;
#X connect 101 0 119 0;
#X connect 102 0 106 0;
#X connect 102 0 107 0;
#X connect 103 0 106 0;
#X connect 103 0 107 0;
#X connect 104 0 109 0;
#X connect 105 0 108 0;
#X connect 106 0 107 0;
#X connect 107 0 112 0;
#X connect 108 0 104 0;
#X connect 109 0 110 0;
#X connect 110 0 114 0;
#X connect 111 0 106 0;
#X connect 111 0 107 0;
#X connect 112 0 104 0;
#X connect 112 1 104 1;
#X connect 113 0 106 0;
#X connect 113 0 107 0;
#X connect 114 0 98 2;
#X connect 115 0 102 0;
#X connect 121 0 123 0;
#X connect 121 0 99 0;
#X connect 125 0 91 2;
#X connect 127 0 137 0;
#X connect 129 0 72 0;
#X connect 130 0 132 1;
#X connect 131 0 130 0;
#X connect 131 0 132 0;
#X connect 132 0 34 0;
#X connect 133 0 130 1;
#X connect 134 0 98 0;
#X connect 135 0 145 0;
#X connect 136 0 138 0;
#X connect 137 0 143 0;
#X connect 138 0 137 1;
#X connect 139 0 138 3;
#X connect 140 0 138 2;
#X connect 143 0 77 1;
#X connect 143 0 77 0;
#X connect 144 0 146 0;
#X connect 145 0 136 0;
#X connect 146 0 143 1;
