#N canvas 743 41 980 956 10;
#X obj 111 882 *~;
#X obj 139 833 hsl 128 15 0 1 0 0 empty empty empty -2 -8 0 10 -262144
-1 -1 3600 1;
#X obj 121 921 dac~;
#X obj 135 760 ctlin;
#X obj 135 778 / 127;
#X obj 136 851 line~ 100;
#X obj 231 272 hsl 128 15 0 8 0 0 empty empty empty -2 -8 0 10 -262144
-1 -1 5900 1;
#X obj 116 73 p_notein;
#X obj 118 135 p_noteclean;
#X obj 238 196 bng 15 250 50 0 empty empty empty 17 7 0 10 -262144
-1 -1;
#X obj 315 192 bng 15 250 50 0 empty empty empty 17 7 0 10 -262144
-1 -1;
#N canvas 710 375 625 571 osc2 0;
#X obj 102 306 outlet~;
#X obj 210 182 osc~;
#X obj 115 26 inlet~;
#X obj 103 179 osc~;
#X obj 192 64 /~ 0.44436;
#X floatatom 273 44 5 0 0 0 - - -;
#X obj 259 -29 inlet;
#X obj 197 254 cos~;
#X obj 59 249 cos~;
#X obj 42 220 phasor~;
#X obj 198 222 phasor~;
#X obj 257 17 expr 1 - sqrt(($f1 * 0.999) / 127 );
#X text 271 -10 vals from 0-127;
#X connect 2 0 3 0;
#X connect 2 0 4 0;
#X connect 2 0 9 0;
#X connect 3 0 8 0;
#X connect 4 0 1 0;
#X connect 4 0 10 0;
#X connect 6 0 11 0;
#X connect 7 0 0 0;
#X connect 8 0 0 0;
#X connect 9 0 8 0;
#X connect 10 0 7 0;
#X connect 11 0 5 0;
#X connect 11 0 4 1;
#X restore 359 510 pd osc2;
#X obj 239 294 hsl 128 15 0 1 0 0 empty empty empty -2 -8 0 10 -262144
-1 -1 2300 1;
#X text 365 268 phaze;
#X text 375 292 amount;
#X floatatom 125 176 5 0 0 0 - - -;
#X msg 648 136 440;
#X msg 678 136 880;
#X obj 531 343 *;
#X obj 531 154 vsl 15 128 0 1 0 0 empty empty empty 0 -9 0 10 -262144
-1 -1 1000 1;
#X obj 564 155 vsl 15 128 0 880 0 0 empty empty empty 0 -9 0 10 -262144
-1 -1 317 1;
#X floatatom 563 289 5 0 0 0 - - -;
#X floatatom 528 289 5 0 0 0 - - -;
#X floatatom 530 364 5 0 0 0 - - -;
#X obj 414 77 bendin;
#X floatatom 414 120 9 0 0 0 - - -;
#X obj 133 326 +;
#X obj 142 345 mtof;
#X obj 414 99 expr ($f1 - 8192) / 8191 * $f2;
#X msg 615 61 3;
#X text 568 39 bend range halftones;
#X obj 118 285 t b f;
#X msg 581 61 2;
#X msg 548 61 1;
#X msg 530 385 \$1 100;
#X obj 401 482 hsl 128 15 1 127 0 0 empty empty empty -2 -8 0 10 -262144
-1 -1 9900 1;
#X floatatom 416 502 5 0 0 0 - - -;
#X obj 358 448 *~;
#X obj 249 325 hsl 128 15 0 8 0 0 empty empty empty -2 -8 0 10 -262144
-1 -1 8500 1;
#X obj 257 347 hsl 128 15 0 1 0 0 empty empty empty -2 -8 0 10 -262144
-1 -1 4900 1;
#N canvas 72 190 625 571 osc--------- 0;
#X obj 107 445 outlet~;
#X obj 223 127 +;
#X obj 210 182 osc~;
#X obj 206 102 f;
#X obj 237 72 t b f;
#X obj 68 26 inlet;
#X obj 115 26 inlet~;
#X obj 218 32 inlet;
#X obj 68 112 sig~;
#X obj 233 342 *~;
#X obj 288 29 inlet;
#X text 257 343 amount;
#X obj 103 179 osc~;
#X obj 434 199 +;
#X obj 423 232 osc~;
#X obj 413 174 f;
#X obj 435 153 t b f;
#X obj 478 48 inlet;
#X obj 538 50 inlet;
#X text 73 3 base;
#X text 241 6 1st phaze;
#X text 492 13 2nd phaze;
#X obj 420 266 *~;
#X text 452 263 amount;
#X obj 392 112 +;
#X obj 380 91 f;
#X obj 382 69 t b f;
#X floatatom 466 76 5 0 0 0 - - -;
#X floatatom 195 57 5 0 0 0 - - -;
#X connect 1 0 2 0;
#X connect 2 0 9 0;
#X connect 3 0 1 0;
#X connect 4 0 3 0;
#X connect 4 1 1 1;
#X connect 5 0 3 0;
#X connect 5 0 8 0;
#X connect 5 0 15 0;
#X connect 6 0 12 0;
#X connect 7 0 4 0;
#X connect 7 0 25 0;
#X connect 7 0 28 0;
#X connect 8 0 12 0;
#X connect 9 0 0 0;
#X connect 10 0 9 1;
#X connect 12 0 0 0;
#X connect 13 0 14 0;
#X connect 14 0 22 0;
#X connect 15 0 13 0;
#X connect 16 0 15 0;
#X connect 16 1 13 1;
#X connect 17 0 26 0;
#X connect 17 0 27 0;
#X connect 18 0 22 1;
#X connect 22 0 9 0;
#X connect 24 0 16 0;
#X connect 25 0 24 0;
#X connect 26 0 25 0;
#X connect 26 1 24 1;
#X restore 176 377 pd osc---------;
#X msg 618 136 220;
#X obj 548 23 loadbang;
#X obj 447 848 vline~;
#X floatatom 466 678 5 0 0 0 - - -;
#X floatatom 535 608 5 0 0 0 - - -;
#X floatatom 558 697 5 0 0 0 - - -;
#X text 466 659 atck time;
#X text 527 587 sust val;
#X obj 539 643 clip 0 1;
#X text 566 712 sust time;
#X floatatom 405 631 5 0 0 0 - - -;
#X obj 485 741 pack f f f f;
#X obj 404 651 / 127;
#X floatatom 406 672 5 0 0 0 - - -;
#X text 422 685 vol;
#X obj 359 865 *~;
#X floatatom 706 647 5 0 0 0 - - -;
#X text 740 645 cutoff time;
#X floatatom 541 668 5 0 0 0 - - -;
#X obj 547 562 hsl 128 15 0 1 0 0 empty empty sustain_value -2 -8 0
10 -262144 -1 -1 1800 1;
#X msg 468 767 \$1 \$2 \, \$3 \$4 \$2;
#X obj 562 314 t b f;
#X obj 119 251 line;
#X floatatom 170 187 5 0 0 0 - - -;
#X msg 118 232 \$1 \$2;
#X obj 118 211 pack;
#X msg 587 136 22;
#X text 159 229 portament;
#X floatatom 825 648 5 0 0 0 - - -;
#X text 861 648 longtail amount;
#X floatatom 855 668 5 0 0 0 - - -;
#X text 891 668 longtail time;
#X obj 707 801 pack f f f;
#X msg 645 829 \$1 \$2 \, 0 \$3 \$2;
#X obj 758 706 clip 0 1;
#X obj 707 777 f;
#X obj 706 672 t b f;
#X obj 825 454 vsl 15 128 0 0.5 0 0 empty empty longtail_amount 0 -9
0 10 -262144 -1 -1 2900 1;
#X obj 743 760 *;
#X floatatom 822 819 5 0 0 0 - - -;
#X obj 758 732 t b f;
#X obj 108 653 freeverb~;
#X obj 152 882 *~;
#X msg 33 410 roomsize \$1;
#X msg 33 450 damping \$1;
#X msg 33 492 width \$1;
#X msg 33 538 wet \$1;
#X msg 33 586 dry \$1;
#X obj 36 395 hsl 128 15 0 1 0 0 empty empty empty -2 -8 0 10 -262144
-1 -1 900 1;
#X obj 36 434 hsl 128 15 0 1 0 0 empty empty empty -2 -8 0 10 -262144
-1 -1 9700 1;
#X obj 36 475 hsl 128 15 0 1 0 0 empty empty empty -2 -8 0 10 -262144
-1 -1 10400 1;
#X obj 36 518 hsl 128 15 0 1 0 0 empty empty empty -2 -8 0 10 -262144
-1 -1 11500 1;
#X obj 36 565 hsl 128 15 0 1 0 0 empty empty empty -2 -8 0 10 -262144
-1 -1 6100 1;
#X msg 33 616 bypass \$1;
#X obj 8 601 tgl 15 0 empty empty empty 17 7 0 10 -262144 -1 -1 1 1
;
#N canvas 73 344 494 513 filter 0;
#X obj 57 35 inlet~;
#X obj 76 414 outlet~;
#X obj 147 36 inlet;
#X obj 205 35 inlet;
#X obj 262 34 inlet;
#X text 146 18 freq;
#X text 196 17 harmonic;
#X text 273 16 Q;
#X floatatom 104 151 5 0 0 0 - - -;
#X floatatom 207 265 5 0 0 0 - - -;
#X obj 92 305 vcf~;
#X obj 146 86 t b f;
#X obj 103 122 * 1;
#X obj 246 139 *;
#X floatatom 233 179 5 0 0 0 - - -;
#X floatatom 268 57 5 0 0 0 - - -;
#X floatatom 212 65 5 0 0 0 - - -;
#X floatatom 110 68 5 0 0 0 - - -;
#X obj 296 242 clip 0 400;
#X obj 255 104 t f f;
#X obj 263 79 / 100;
#X obj 107 191 line~ 1000;
#X msg 104 171 \$1 4;
#X connect 0 0 10 0;
#X connect 2 0 12 0;
#X connect 2 0 17 0;
#X connect 3 0 11 0;
#X connect 3 0 16 0;
#X connect 4 0 15 0;
#X connect 8 0 22 0;
#X connect 9 0 10 2;
#X connect 10 0 1 0;
#X connect 11 0 12 0;
#X connect 11 1 12 1;
#X connect 12 0 8 0;
#X connect 13 0 14 0;
#X connect 14 0 18 0;
#X connect 15 0 20 0;
#X connect 18 0 9 0;
#X connect 19 0 13 0;
#X connect 19 1 13 1;
#X connect 20 0 19 0;
#X connect 21 0 10 1;
#X connect 22 0 21 0;
#X restore 221 589 pd filter;
#X obj 273 446 vsl 15 128 0 127 0 0 empty empty empty 0 -9 0 10 -262144
-1 -1 7800 1;
#X obj 250 443 vsl 15 128 1 127 0 0 empty empty empty 0 -9 0 10 -262144
-1 -1 2100 1;
#X obj 531 410 line~;
#X obj 871 491 vsl 15 128 0 2000 0 0 empty empty longtail_time 0 -9
0 10 -262144 -1 -1 4600 1;
#X obj 135 804 * 1;
#X floatatom 214 778 5 0 0 0 - - -;
#X obj 650 107 loadbang;
#X obj 265 895 *~;
#N canvas 116 302 596 499 test 1;
#X obj 112 316 outlet~;
#X obj 220 192 osc~;
#X obj 125 36 inlet~;
#X obj 113 189 osc~;
#X obj 202 74 /~ 0.44436;
#X floatatom 283 54 5 0 0 0 - - -;
#X obj 269 -19 inlet;
#X obj 207 264 cos~;
#X obj 69 259 cos~;
#X obj 52 230 phasor~;
#X obj 208 232 phasor~;
#X obj 267 27 expr 1 - sqrt(($f1 * 0.999) / 127 );
#X text 281 0 vals from 0-127;
#X connect 2 0 3 0;
#X connect 2 0 4 0;
#X connect 2 0 9 0;
#X connect 3 0 8 0;
#X connect 4 0 1 0;
#X connect 4 0 10 0;
#X connect 6 0 11 0;
#X connect 7 0 0 0;
#X connect 8 0 0 0;
#X connect 9 0 8 0;
#X connect 10 0 7 0;
#X connect 11 0 5 0;
#X connect 11 0 4 1;
#X restore 337 555 pd test;
#X connect 1 0 5 0;
#X connect 3 0 4 0;
#X connect 4 0 101 0;
#X connect 5 0 0 1;
#X connect 5 0 83 1;
#X connect 5 0 104 1;
#X connect 6 0 40 2;
#X connect 7 0 8 0;
#X connect 7 1 8 1;
#X connect 7 2 8 2;
#X connect 8 1 15 0;
#X connect 8 2 9 0;
#X connect 8 2 51 0;
#X connect 8 3 10 0;
#X connect 10 0 57 0;
#X connect 12 0 40 3;
#X connect 15 0 66 0;
#X connect 16 0 20 0;
#X connect 16 0 21 0;
#X connect 17 0 20 0;
#X connect 17 0 21 0;
#X connect 18 0 23 0;
#X connect 19 0 22 0;
#X connect 20 0 21 0;
#X connect 21 0 62 0;
#X connect 22 0 18 0;
#X connect 23 0 34 0;
#X connect 24 0 28 0;
#X connect 25 0 26 0;
#X connect 26 0 27 0;
#X connect 27 0 40 0;
#X connect 27 0 96 1;
#X connect 28 0 25 0;
#X connect 29 0 28 1;
#X connect 31 0 26 0;
#X connect 31 1 26 1;
#X connect 32 0 28 1;
#X connect 33 0 28 1;
#X connect 34 0 99 0;
#X connect 35 0 11 1;
#X connect 35 0 36 0;
#X connect 37 0 11 0;
#X connect 38 0 40 4;
#X connect 39 0 40 5;
#X connect 40 0 37 0;
#X connect 41 0 20 0;
#X connect 41 0 21 0;
#X connect 42 0 33 0;
#X connect 43 0 56 1;
#X connect 44 0 52 1;
#X connect 45 0 49 0;
#X connect 46 0 52 3;
#X connect 49 0 59 0;
#X connect 51 0 53 0;
#X connect 52 0 61 0;
#X connect 53 0 54 0;
#X connect 54 0 52 0;
#X connect 56 0 96 0;
#X connect 57 0 77 0;
#X connect 59 0 52 2;
#X connect 59 0 79 0;
#X connect 60 0 45 0;
#X connect 61 0 43 0;
#X connect 62 0 18 0;
#X connect 62 1 18 1;
#X connect 63 0 31 0;
#X connect 64 0 66 1;
#X connect 65 0 63 0;
#X connect 66 0 65 0;
#X connect 67 0 20 0;
#X connect 67 0 21 0;
#X connect 69 0 75 0;
#X connect 71 0 73 2;
#X connect 73 0 74 0;
#X connect 74 0 43 0;
#X connect 75 0 81 0;
#X connect 76 0 73 0;
#X connect 77 0 76 0;
#X connect 77 1 73 1;
#X connect 78 0 69 0;
#X connect 79 0 76 1;
#X connect 79 0 80 0;
#X connect 81 0 79 0;
#X connect 81 1 79 1;
#X connect 82 0 0 0;
#X connect 82 1 83 0;
#X connect 84 0 82 0;
#X connect 85 0 82 0;
#X connect 86 0 82 0;
#X connect 87 0 82 0;
#X connect 88 0 82 0;
#X connect 89 0 84 0;
#X connect 90 0 85 0;
#X connect 91 0 86 0;
#X connect 92 0 87 0;
#X connect 93 0 88 0;
#X connect 94 0 82 0;
#X connect 95 0 94 0;
#X connect 96 0 82 0;
#X connect 96 0 82 1;
#X connect 97 0 96 3;
#X connect 98 0 96 2;
#X connect 99 0 37 1;
#X connect 100 0 71 0;
#X connect 101 0 1 0;
#X connect 102 0 101 1;
#X connect 103 0 16 0;
#X connect 104 0 2 1;
